# xmcd
#
# Track frame offsets: 
#        150
#        11674
#        27171
#        52558
#        63357
#        75711
#        92333
#        104012
#        113320
#        128175
#        140480
#        155345
#        166726
#        179112
#        188279
#        200450
#        212722
#        226961
#        238629
#        250665
#
# Disc length: 3541 seconds
#
# Revision: 1
# Processed by: cddbd v1.5.2PL0 Copyright (c) Steve Scherf et al.
# Submitted via: ExactAudioCopyFreeDBPlugin 1.0
#
DISCID=f50dd314
DTITLE=Bobby Womack - Lookin' for a Love Again - BW Goes C&W
DYEAR=2004
DGENRE=Soul
TTITLE0=Lookin' for a Love
TTITLE1=I Don't Wanna Be Hurt By Ya Again
TTITLE2=Doing It My Way
TTITLE3=Let It Hang Out
TTITLE4=Point of No Return
TTITLE5=You're Welcome, Stop on By
TTITLE6=You're Messing Up a Good Thing
TTITLE7=Don't Let Me Down
TTITLE8=Copper Kettle
TTITLE9=There's One Thing That Beats Falling
TTITLE10=Don't Make This the Last Date for You and Me
TTITLE11=Behind Closed Doors
TTITLE12=Bouqet of Roses
TTITLE13=Tired of Living in the Country
TTITLE14=Tarnished Rings
TTITLE15=Big Bayou
TTITLE16=Song of the Mockingbird
TTITLE17=I'd Be Ahead If I Could Quit While I'm Behind
TTITLE18=You
TTITLE19=I Take it on Home
EXTD=
EXTT0=
EXTT1=
EXTT2=
EXTT3=
EXTT4=
EXTT5=
EXTT6=
EXTT7=
EXTT8=
EXTT9=
EXTT10=
EXTT11=
EXTT12=
EXTT13=
EXTT14=
EXTT15=
EXTT16=
EXTT17=
EXTT18=
EXTT19=
PLAYORDER=
